<svg width="16" height="4" viewBox="0 0 16 4" fill="none" xmlns="http://www.w3.org/2000/svg">
<path d="M11.5982 0.0153515C11.7054 -0.0106888 11.8214 -0.000270963 11.9107 0.0413918L15.3393 1.86431C15.3929 1.89556 15.4286 1.93722 15.4286 1.9841C15.4286 2.03098 15.3929 2.07785 15.3393 2.1091L11.9107 3.95805C11.8214 3.99972 11.7054 4.01013 11.5982 3.98409C11.5 3.95805 11.4286 3.90076 11.4286 3.83306V2.66639L0.285719 2.66639C0.125 2.66639 0 2.59347 0 2.49972L0 1.49972C0 1.40597 0.125 1.33306 0.285719 1.33306L11.4286 1.33306V0.166389C11.4286 0.098677 11.4911 0.0413918 11.5982 0.0153515Z" fill="#F92672"/>
</svg>
