<svg width="24" height="24" viewBox="0 0 24 24" fill="none" xmlns="http://www.w3.org/2000/svg">
<path d="M3.70311 20.0937H7.31248V9.25001H3.70311V20.0937ZM7.54685 5.90625C7.53123 4.84375 6.76561 4.03126 5.53123 4.03126C4.29685 4.03126 3.48436 4.84375 3.48436 5.90625C3.48436 6.93749 4.2656 7.78124 5.48436 7.78124H5.49998C6.76561 7.78124 7.54685 6.93749 7.54685 5.90625ZM16.6875 20.0937H20.2969V13.875C20.2969 10.5469 18.5156 8.99998 16.1406 8.99998C14.2031 8.99998 13.3437 10.0781 12.875 10.8281H12.9062V9.24998H9.29685C9.29685 9.24998 9.34371 10.2656 9.29685 20.0937H12.9062V14.0312C12.9062 13.7187 12.9218 13.3906 13.0156 13.1562C13.2812 12.5156 13.875 11.8437 14.875 11.8437C16.1719 11.8437 16.6875 12.8281 16.6875 14.2968V20.0937V20.0937ZM24 4.49999V19.5C24 21.9843 21.9843 24 19.5 24H4.49999C2.01562 24 0 21.9843 0 19.5V4.49999C0 2.01562 2.01562 0 4.49999 0H19.5C21.9843 0 24 2.01562 24 4.49999Z" fill="#75715E"/>
</svg>
